<svg fill="#212121" xmlns="http://www.w3.org/2000/svg"  viewBox="0 0 24 24" width="24px" height="24px"><path d="M15.231,11.231c-0.305,0-0.527,0.123-0.668,0.369s-0.211,0.684-0.211,1.313v0.439c0,0.625,0.066,1.062,0.199,1.31 s0.357,0.372,0.674,0.372c0.328,0,0.576-0.146,0.744-0.439V11.7C15.806,11.388,15.56,11.231,15.231,11.231z M19,3H5 C3.896,3,3,3.895,3,5v14c0,1.105,0.896,2,2,2h14c1.104,0,2-0.895,2-2V5C21,3.895,20.104,3,19,3z M10.894,16.3h-0.026 c-0.358,0-0.679-0.219-0.81-0.552l-0.955-2.431l-0.95,2.429C8.022,16.08,7.701,16.3,7.343,16.3H7.317 c-0.64,0-1.061-0.667-0.785-1.244l1.457-3.056L6.57,9.012C6.296,8.435,6.717,7.769,7.356,7.769h0.005 c0.358,0,0.679,0.219,0.81,0.552l0.932,2.377l0.932-2.377c0.131-0.333,0.452-0.552,0.81-0.552h0.006 c0.639,0,1.06,0.665,0.786,1.242l-1.415,2.988l1.457,3.056C11.954,15.633,11.533,16.3,10.894,16.3z M17.64,15.57 c0,0.458-0.372,0.83-0.83,0.83H16.8c-0.404,0-0.724-0.294-0.799-0.676c-0.332,0.456-0.748,0.693-1.256,0.693 c-0.664,0-1.171-0.254-1.521-0.762s-0.528-1.254-0.536-2.238v-0.48c0-1.039,0.176-1.814,0.527-2.326s0.863-0.768,1.535-0.768 c0.488,0,0.895,0.211,1.219,0.633V8.13c0-0.458,0.372-0.83,0.83-0.83h0.01c0.458,0,0.83,0.372,0.83,0.83V15.57z"/></svg>