<svg width="1168.75" height="684.51654" xmlns="http://www.w3.org/2000/svg">
 <title>portfolio_website</title>

 <g>
  <title>background</title>
  <rect x="-1" y="-1" width="1170.75" height="686.51654" id="canvas_background" fill="none"/>
 </g>
 <g>
  <title>Layer 1</title>
  <path d="m1040.75,256a128,128 0 1 1 128,-128a128.14509,128.14509 0 0 1 -128,128zm0,-254a126,126 0 1 0 126,126a126.1428,126.1428 0 0 0 -126,-126z" fill="#212121" id="svg_1"/>
  <circle cx="1041.17934" cy="128.36733" r="64.27294" fill="#f2f2f2" id="svg_2"/>
  <rect x="64.2437" y="124.51654" width="981.17647" height="492.92437" fill="#212121" id="svg_3"/>
  <rect x="339.90756" y="271.02074" width="367.94118" height="252.30252" opacity="0.1" id="svg_4"/>
  <circle cx="1129.14865" cy="38.0284" r="25.91651" fill="#f8f8f8" id="svg_5"/>
  <circle cx="93.44538" cy="147.20561" r="11.68067" fill="#f8f8f8" id="svg_6"/>
  <circle cx="129.65546" cy="147.20561" r="11.68067" fill="#f8f8f8" id="svg_7"/>
  <circle cx="165.86555" cy="147.20561" r="11.68067" fill="#f8f8f8" id="svg_8"/>
  <rect x="177.54622" y="311.90309" width="23.36134" height="23.36134" fill="#f8f8f8" id="svg_9"/>
  <rect x="888.89916" y="515.14679" width="23.36134" height="23.36134" fill="#fff" id="svg_10"/>
  <rect x="704.34474" y="994.35729" width="23.36134" height="23.36134" transform="rotate(-38.976898193359375 -127.7590026855468,529.1580200195312) " fill="#f8f8f8" id="svg_11"/>
  <polygon points="747.563 670.5 14.017 670.5 14.017 275.693 16.353 275.693 16.353 668.164 747.563 668.164 747.563 670.5" fill="#212121" id="svg_12"/>
  <path d="m761.57983,684.51654a15.18488,15.18488 0 1 1 15.18488,-15.18487a15.20245,15.20245 0 0 1 -15.18488,15.18487zm0,-28.03361a12.84874,12.84874 0 1 0 12.84874,12.84874a12.86328,12.86328 0 0 0 -12.84874,-12.84874z" fill="#212121" id="svg_13"/>
  <path d="m15.18487,276.86108a15.18488,15.18488 0 1 1 15.18488,-15.18488a15.20172,15.20172 0 0 1 -15.18488,15.18488zm0,-28.03362a12.84874,12.84874 0 1 0 12.84874,12.84874a12.86328,12.86328 0 0 0 -12.84874,-12.84874z" fill="#212121" id="svg_14"/>
  <path d="m234.78151,592.23927l-10.43083,29.20168l-23.44312,0l0,-29.78575c1.72872,-37.36646 22.69554,-54.93424 23.34966,-55.47151c-15.75722,15.1965 -14.00512,67.73621 -14.00512,67.73621c10.51261,-45.55462 19.85714,-46.72269 19.85714,-46.72269c-5.65347,8.4918 -8.57364,47.11979 -8.74881,49.526c0.70081,-8.118 13.42108,-14.48394 13.42108,-14.48394z" fill="#f2f2f2" id="svg_15"/>
  <path d="m960.15126,596.21061l0,25.2303l-18.02326,0l-8.84228,-24.77473s10.08042,5.04609 10.64107,11.48209c-0.14016,-1.98573 -2.45291,-32.54234 -6.93832,-39.27042c0,0 7.41727,0.92275 15.75721,37.05106c0,0 1.37838,-41.66494 -11.10826,-53.7194c0.52558,0.43221 17.14722,14.35555 18.51384,44.0011z" fill="#f2f2f2" id="svg_16"/>
  <path d="m644.715,523.31827l-28.41,0l-0.19,-2.33l-2.07,-25.97l0,-0.01l-2.15,-27l13.11,-55.69l11.14,11.14l0,53.07s6.55,9.83 5.24,12.45s-2.62,2.62 -1.31,4.58c1.31,1.97 2.62,3.28 1.31,4.59a4.92,4.92 0 0 0 0,5.9c1.31,1.31 3.93,3.27 1.96,5.24c-1.96,1.96 -4.58,0.65 -1.96,7.86a23.00135,23.00135 0 0 0 1.8,3.84a25.502,25.502 0 0 0 1.53,2.33z" fill="#f8f8f8" id="svg_17"/>
  <polygon points="557.189 343.847 553.258 383.159 593.225 389.056 596.173 366.452 599.122 343.847 557.189 343.847" fill="#ffb9b9" id="svg_18"/>
  <polygon points="557.189 343.847 553.258 383.159 593.225 389.056 596.173 366.452 599.122 343.847 557.189 343.847" opacity="0.1" id="svg_19"/>
  <circle cx="579.13804" cy="325.17394" r="31.44965" fill="#ffb9b9" id="svg_20"/>
  <path d="m499.665,523.31827c-0.11,-0.23 -0.23,-0.47 -0.35,-0.73c-0.23,-0.49 -0.48,-1.02 -0.75,-1.6c-1.74,-3.88 -3.87,-9.4 -2.64,-11.05c1.97,-2.62 2.62,-5.24 1.31,-6.55s-5.24,1.31 -1.31,-1.97c3.93,-3.27 5.24,-1.31 3.93,-5.24s-3.93,-1.96 -1.31,-3.93c2.62,-1.96 4.59,-1.31 3.28,-3.27c-1.31,-1.97 -3.93,-1.97 -1.31,-3.28s4.59,0 3.93,-3.28c-0.66,-3.27 -1.31,-1.96 0,-3.27c0.34,-0.34 1.53,-3.64 3.12,-8.35c4.45,-13.31 11.95,-37.86 11.95,-38.83c0,-1.31 -10.48,-42.58 -10.48,-42.58l-4.59,-2.63s-20.31,13.76 -26.86,44.56c-6.56,30.79 -11.14,38.66 -11.14,38.66s-6.55,1.31 -1.97,5.89c4.59,4.59 4.59,3.93 0.66,6.55s-6.55,-2.62 -3.93,2.62c2.62,5.25 5.89,3.94 3.27,7.21c-2.62,3.28 -7.2,3.28 -4.58,5.9s-2.62,8.52 0.65,11.14c3.28,2.62 4.59,3.27 4.59,7.86a24.2678,24.2678 0 0 0 0.31,3.84a19.59679,19.59679 0 0 0 0.48,2.33c0.15,0.61 0.3,1.07 0.4,1.36l33.34,-1.36z" fill="#f8f8f8" id="svg_21"/>
  <polygon points="499.665 523.318 502.335 523.318 502.475 522.388 499.315 522.588 487.825 523.318 466.325 524.678 499.665 523.318" fill="#3f3d56" id="svg_22"/>
  <path d="m513.615,495.52827l-5.89,-20.31l-0.16,-4.42l-3.12,-84.04l38.66,-13.75l6.55,-5.25s1.31,-15.07 3.28,-16.38c0.71,-0.47 1.85,0.08 3.36,1.36c2.65,2.25 6.45,6.74 11.05,11.75c7.21,7.86 22.28,6.55 26.86005,3.93a15.46778,15.46778 0 0 1 1.83,-0.91c3.29,-1.36 4.72,-0.4 4.72,-0.4c3.28,2.62 -4.58,11.14 -4.58,11.14s2.62,5.89 19.65,11.79c17.04,5.9 20.32,33.42 20.32,33.42s-20.32,55.03 -19.66,58.96c0.56,3.37 -1.76,10.59 -2.44,12.59l0,0.01c-0.11,0.32 -0.18,0.51 -0.18,0.51l1.49,25.46l0.14,2.33l-99.11005,0a13.47767,13.47767 0 0 0 -1.11,-2.33c-0.11,-0.18 -0.23,-0.37 -0.35,-0.56c-5.89,-9.18 -1.31,-24.9 -1.31,-24.9z" fill="#f8f8f8" id="svg_23"/>
  <path d="m547.47032,330.20268s-3.26589,-4.89882 -2.00978,-10.17448a30.83664,30.83664 0 0 0 0.87928,-9.16959s2.63783,-8.54154 5.27565,-13.31475s1.38172,-6.783 9.672,-8.29032s4.89882,-12.30986 26.75511,-0.62805a6.40974,6.40974 0 0 0 6.65737,2.51222c4.522,-0.87928 6.15494,5.40126 6.15494,5.40126s3.01466,-1.75855 4.14515,0.75367s9.19122,-1.50778 9.19122,15.44968s-9.17281,32.10485 -9.17281,32.10485s0.67245,-28.52449 -14.27524,-31.41354s-31.02588,-11.305 -34.91981,-0.50244a82.35048,82.35048 0 0 1 -8.35308,17.27149z" fill="#000000" id="svg_24"/>
  <ellipse cx="605.34609" cy="332.05355" rx="2.9484" ry="3.93121" fill="#ffb9b9" id="svg_25"/>
  <path d="m339.905,252.32827l0,270.99l429.85,0l0,-270.99l-429.85,0zm427.52,268.66l-425.18,0l0,-266.32l425.18,0l0,266.32z" fill="#f8f8f8" id="svg_26"/>
 </g>
</svg>